<svg xmlns="http://www.w3.org/2000/svg" viewBox="0 0 11 11">
	<path d="M4.4,4.4c0.5-0.5,0.8-1.1,0.8-1.8c0-0.7-0.3-1.3-0.8-1.8c-1-1-2.6-1-3.6,0C0.3,1.2,0,1.9,0,2.6c0,0.7,0.3,1.3,0.8,1.8c0.5,0.5,1.2,0.8,1.8,0.8C3.2,5.2,3.9,4.9,4.4,4.4z M1.7,3.5C1.4,3.2,1.3,2.9,1.3,2.6c0-0.3,0.1-0.7,0.4-0.9c0.2-0.2,0.6-0.4,0.9-0.4c0.3,0,0.6,0.1,0.9,0.4c0.2,0.2,0.4,0.6,0.4,0.9c0,0.3-0.1,0.7-0.4,0.9C3,4,2.2,4,1.7,3.5z M10.2,6.6c-1-1-2.6-1-3.6,0c-1,1-1,2.6,0,3.7C7.1,10.7,7.8,11,8.4,11c0.7,0,1.3-0.3,1.8-0.8C11.2,9.2,11.2,7.6,10.2,6.6z M9.3,9.3C8.8,9.8,8,9.8,7.5,9.3C7.1,8.8,7.1,8,7.5,7.5c0.2-0.2,0.6-0.4,0.9-0.4c0.3,0,0.6,0.1,0.9,0.4C9.8,8,9.8,8.8,9.3,9.3z M9.4,1.6c-0.3-0.3-0.7-0.3-0.9,0L1.6,8.5c-0.2,0.2-0.3,0.6,0,0.9c0.2,0.3,0.7,0.3,1,0l6.8-6.9C9.6,2.3,9.6,1.9,9.4,1.6z"/>
</svg>
