<svg xmlns="http://www.w3.org/2000/svg" width="50" height="50" viewBox="0 0 50 50">
  <metadata><?xpacket begin="﻿" id="W5M0MpCehiHzreSzNTczkc9d"?>
<x:xmpmeta xmlns:x="adobe:ns:meta/" x:xmptk="Adobe XMP Core 5.6-c142 79.160924, 2017/07/13-01:06:39        ">
   <rdf:RDF xmlns:rdf="http://www.w3.org/1999/02/22-rdf-syntax-ns#">
      <rdf:Description rdf:about=""/>
   </rdf:RDF>
</x:xmpmeta>
                                                                                                    
                                                                                                    
                                                                                                    
                                                                                                    
                                                                                                    
                                                                                                    
                                                                                                    
                                                                                                    
                                                                                                    
                                                                                                    
                                                                                                    
                                                                                                    
                                                                                                    
                                                                                                    
                                                                                                    
                                                                                                    
                                                                                                    
                                                                                                    
                                                                                                    
                                                                                                    
                           
<?xpacket end="w"?></metadata>
<defs>
    <style>
      .cls-1 {
        fill: #d5ba96;
        fill-rule: evenodd;
      }
    </style>
  </defs>
  <path class="cls-1" d="M1239.67,375.761a1.321,1.321,0,1,0-1.32-1.321A1.321,1.321,0,0,0,1239.67,375.761Zm8.96,0.3a1.362,1.362,0,0,0,1.92,0,1.346,1.346,0,0,0,0-1.915A1.356,1.356,0,0,0,1248.63,376.065Zm0-4.439a1.377,1.377,0,0,0,.96.4,1.359,1.359,0,0,0,.96-0.4,1.347,1.347,0,0,0,0-1.916A1.356,1.356,0,0,0,1248.63,371.626Zm0.96-4.044a1.362,1.362,0,0,0,.96-0.395,1.347,1.347,0,0,0,0-1.916,1.356,1.356,0,0,0-.96-0.4,1.392,1.392,0,0,0-.96.4A1.354,1.354,0,0,0,1249.59,367.582Zm5.34,8.88h8.53a1.355,1.355,0,1,0,0-2.709h-8.53A1.355,1.355,0,1,0,1254.93,376.462Zm0-4.44h8.53a1.355,1.355,0,1,0,0-2.709h-8.53A1.355,1.355,0,1,0,1254.93,372.022Zm0-4.439h8.53a1.355,1.355,0,1,0,0-2.709h-8.53A1.355,1.355,0,1,0,1254.93,367.583Zm23.3,0.682a3.723,3.723,0,0,0,2.71-6.324l-21.27-21.849a3.808,3.808,0,0,0-5.34,0l-7.56,7.763v-3.692a1.321,1.321,0,0,0-1.32-1.321h-5.78a1.321,1.321,0,0,0-1.32,1.321v12.34l-5.29,5.434a3.726,3.726,0,0,0,5.29,5.248V370.6a1.32,1.32,0,0,0,2.64,0v-6.11L1257,348.147l16,16.339v17.956h-32.01v-4.158a1.32,1.32,0,1,0-2.64,0v4.158h-0.6a3.252,3.252,0,0,0-3.25,3.243,3.328,3.328,0,0,0,3.25,3.315h38.5a3.328,3.328,0,0,0,3.25-3.315,3.252,3.252,0,0,0-3.25-3.243h-0.6V367.187A3.7,3.7,0,0,0,1278.23,368.265Zm-34.11-22.779v5.088l-3.13,3.214v-8.3h3.13Zm12.88-.549a1.337,1.337,0,0,0-.95.4L1236.5,365.3a1.076,1.076,0,0,1-.77.327h0a1.068,1.068,0,0,1-.76-0.308,1.078,1.078,0,0,1-.02-1.533l2.21-2.268c5.63-5.782,18.82-19.321,19.06-19.576a1.1,1.1,0,0,1,.78-0.3,1.067,1.067,0,0,1,.77.293l21.28,21.85a1.083,1.083,0,0,1-.79,1.838,1.061,1.061,0,0,1-.76-0.327l-19.56-19.962h0A1.311,1.311,0,0,0,1257,344.937Zm-19.86,40.748a0.6,0.6,0,0,1,.61-0.6h38.5a0.6,0.6,0,0,1,.6.6,0.668,0.668,0,0,1-.6.673h-38.5A0.669,0.669,0,0,1,1237.14,385.685Z" transform="translate(-1232 -339)"/>
</svg>
