<?xml version="1.0" encoding="utf-8"?>
<!-- Generator: Adobe Illustrator 19.2.1, SVG Export Plug-In . SVG Version: 6.00 Build 0)  -->
<svg version="1.1" id="Слой_1" xmlns="http://www.w3.org/2000/svg" xmlns:xlink="http://www.w3.org/1999/xlink" x="0px" y="0px"
	 viewBox="0 0 61 50" style="enable-background:new 0 0 61 50;" xml:space="preserve">
<style type="text/css">
	.st0{fill:#222222;}
</style>
<g>
	<path class="st0" d="M60.8,32.1l-9.2-14.3c-0.2-0.3-0.5-0.5-0.9-0.5H40.7v-6.1c0-0.6-0.5-1-1-1H1c-0.6,0-1,0.5-1,1v32.7
		c0,0.6,0.5,1,1,1h7.2c0.5,2.9,3,5.1,6,5.1c3,0,5.5-2.2,6-5.1h22.6c0.5,2.9,3,5.1,6,5.1c3,0,5.5-2.2,6-5.1H60c0.6,0,1-0.5,1-1V32.6
		C61,32.4,60.9,32.2,60.8,32.1z M14.2,48c-2.2,0-4.1-1.8-4.1-4.1c0-2.3,1.8-4.1,4.1-4.1c2.2,0,4.1,1.8,4.1,4.1S16.5,48,14.2,48z
		 M38.6,14.2H4.1v2h34.6v22.5H21.3v2h17.3v2H20.2c-0.5-2.9-3-5.1-6-5.1c-3,0-5.5,2.2-6,5.1H2v-2h5.1v-2H2V12.1h36.6V14.2z
		 M52.9,23.4L52.9,23.4l4.6,7.2H44.7v-7.2H52.9z M48.8,48c-2.2,0-4.1-1.8-4.1-4.1c0-2.3,1.8-4.1,4.1-4.1s4.1,1.8,4.1,4.1
		S51,48,48.8,48z M59,38.7h-3v2h3v2h-4.2c-0.5-2.9-3-5.1-6-5.1c-3,0-5.5,2.2-6,5.1h-2.1V19.3h9.6l1.3,2h-7.9c-0.6,0-1,0.5-1,1v9.2
		c0,0.6,0.5,1,1,1h15.1l0.2,0.3V38.7z M13.2,44.9h2v-2h-2V44.9z M47.8,44.9h2v-2h-2V44.9z M18.3,6H4.1v2h14.2V6z M2,6H0v2h2V6z"/>
</g>
</svg>
