<svg xmlns="http://www.w3.org/2000/svg" width="63" height="51" viewBox="0 0 63 51">
  <metadata><?xpacket begin="﻿" id="W5M0MpCehiHzreSzNTczkc9d"?>
<x:xmpmeta xmlns:x="adobe:ns:meta/" x:xmptk="Adobe XMP Core 5.6-c142 79.160924, 2017/07/13-01:06:39        ">
   <rdf:RDF xmlns:rdf="http://www.w3.org/1999/02/22-rdf-syntax-ns#">
      <rdf:Description rdf:about=""/>
   </rdf:RDF>
</x:xmpmeta>
                                                                                                    
                                                                                                    
                                                                                                    
                                                                                                    
                                                                                                    
                                                                                                    
                                                                                                    
                                                                                                    
                                                                                                    
                                                                                                    
                                                                                                    
                                                                                                    
                                                                                                    
                                                                                                    
                                                                                                    
                                                                                                    
                                                                                                    
                                                                                                    
                                                                                                    
                                                                                                    
                           
<?xpacket end="w"?></metadata>
<defs>
    <style>
      .cls-1 {
        fill: #d5ba96;
        fill-rule: evenodd;
      }
    </style>
  </defs>
  <path class="cls-1" d="M483.22,370.015a1.23,1.23,0,1,0,1.741,0A1.231,1.231,0,0,0,483.22,370.015Zm34.036-13.69a4.941,4.941,0,0,0-6.906.548l-7.261,7.451a4.947,4.947,0,0,0-3.825-1.829H485.542a15.886,15.886,0,0,0-6.162-1.228c-5.925,0-11.1,2.732-13.876,7.855a3.681,3.681,0,0,0-3.291,1.018L456.36,376a1.227,1.227,0,0,0,0,1.733l13.816,13.9a1.232,1.232,0,0,0,1.737.01l5.965-5.868a3.706,3.706,0,0,0,.876-3.812l1.284-1.236a3.673,3.673,0,0,1,2.562-1.034h16.358a11.022,11.022,0,0,0,7.724-3.133c0.086-.083-0.649.782,11.16-13.31A4.914,4.914,0,0,0,517.256,356.325Zm-41.113,27.707-5.086,5-12.09-12.163,4.988-5a1.23,1.23,0,0,1,1.524-.173c0.212,0.13-.4-0.426,10.657,10.6A1.229,1.229,0,0,1,476.143,384.032Zm39.814-22.362L504.92,374.843a8.572,8.572,0,0,1-5.964,2.395H482.6a6.125,6.125,0,0,0-4.272,1.722l-1.045,1.008-9.64-9.625c2.253-4.219,6.48-6.62,11.739-6.62a13.451,13.451,0,0,1,5.417,1.126,1.231,1.231,0,0,0,.493.1h13.974a2.457,2.457,0,1,1,0,4.914h-10.04a1.229,1.229,0,1,0,0,2.457h10.04a4.9,4.9,0,0,0,4.878-5.556c7.024-7.209,8.015-8.222,8.057-8.272A2.46,2.46,0,1,1,515.957,361.67ZM479.5,358.253c4.011,0,7.175-3.377,7.175-8.4s-3.164-8.4-7.175-8.4-7.174,3.377-7.174,8.4S475.488,358.253,479.5,358.253Zm0-14.189c2.461,0,4.271,2.325,4.271,5.792s-1.81,5.792-4.271,5.792-4.271-2.325-4.271-5.792S477.039,344.064,479.5,344.064Zm10.9,14.058a1.429,1.429,0,0,0,1.773-.287l12.82-14.459a1.426,1.426,0,0,0-2.127-1.9l-12.82,14.459A1.428,1.428,0,0,0,490.4,358.122Zm11.612-7.615a3.5,3.5,0,1,0,3.5,3.5A3.432,3.432,0,0,0,502.013,350.507Zm0,5.01a1.512,1.512,0,1,1,1.469-1.511A1.461,1.461,0,0,1,502.013,355.517Zm-8.985-6.713a3.5,3.5,0,1,0-3.5-3.5A3.432,3.432,0,0,0,493.028,348.8Zm0-5.009a1.511,1.511,0,1,1-1.469,1.511A1.461,1.461,0,0,1,493.028,343.8Z" transform="translate(-456 -341)"/>
</svg>
