<?xml version="1.0" encoding="utf-8"?>
<!-- Generator: Adobe Illustrator 19.2.1, SVG Export Plug-In . SVG Version: 6.00 Build 0)  -->
<svg version="1.1" id="Слой_1" xmlns="http://www.w3.org/2000/svg" xmlns:xlink="http://www.w3.org/1999/xlink" x="0px" y="0px"
	 viewBox="0 0 50 50" style="enable-background:new 0 0 50 50;" xml:space="preserve">
<style type="text/css">
	.st0{fill:#D2B896;}
</style>
<path class="st0" d="M0.8,50h2.3c0.4,0,0.8-0.3,0.8-0.8c0,0,0,0,0,0v-1.6h35v1.6c0,0.4,0.3,0.8,0.8,0.8c0,0,0,0,0,0H42
	c0.4,0,0.8-0.3,0.8-0.8c0,0,0,0,0,0V2c0-1.1-0.9-1.9-1.9-1.9S38.9,0.9,38.9,2v12.1h-2.3V3.1c0-0.4-0.3-0.8-0.8-0.8H23.3
	c-0.4,0-0.8,0.4-0.8,0.8v10.9h-2.3V3.1c0-0.4-0.3-0.8-0.8-0.8H7c-0.4,0-0.8,0.4-0.8,0.8v10.9H3.9V2C3.9,0.9,3,0,1.9,0S0,0.9,0,2
	l0,47.3C0,49.6,0.4,50,0.8,50C0.8,50,0.8,50,0.8,50L0.8,50L0.8,50z M40.4,2c0-0.2,0.2-0.4,0.4-0.4c0.2,0,0.4,0.2,0.4,0.4v46.5h-0.8
	V2z M28.8,3.9h1.6v0.8h-1.6V3.9z M24.1,3.9h3.1v1.6c0,0.4,0.3,0.8,0.8,0.8h3.1c0.4,0,0.8-0.4,0.8-0.8V3.9H35v10.2H24.1V3.9L24.1,3.9
	z M12.4,3.9H14v0.8h-1.6L12.4,3.9L12.4,3.9z M7.8,3.9h3.1v1.6c0,0.4,0.3,0.8,0.8,0.8h3.1c0.4,0,0.8-0.3,0.8-0.8c0,0,0,0,0,0V3.9h3.1
	v10.2H7.8L7.8,3.9L7.8,3.9z M3.9,15.6h35v0.8h-35V15.6z M3.9,18h35v10.9h-2.3v-8.6c0-0.4-0.3-0.8-0.8-0.8H7c-0.4,0-0.8,0.4-0.8,0.8
	v8.6H3.9L3.9,18L3.9,18z M19.4,23.4h3.9c0.4,0,0.8-0.4,0.8-0.8v-1.6H35v7.8H7.8v-7.8h10.9v1.6C18.7,23.1,19,23.4,19.4,23.4
	L19.4,23.4z M20.2,21.9v-0.8h2.3v0.8H20.2z M3.9,30.4h35v0.8h-35V30.4z M3.9,32.8h35v10.9h-2.3v-9.4c0-0.4-0.3-0.8-0.8-0.8
	c0,0,0,0,0,0H24.9c-0.4,0-0.8,0.3-0.8,0.8c0,0,0,0,0,0v9.4h-2.3v-7c0-0.4-0.3-0.8-0.8-0.8c0,0,0,0,0,0h-5.4h0h0h-3.1h0h0H7
	c-0.4,0-0.8,0.3-0.8,0.8c0,0,0,0,0,0v7H3.9L3.9,32.8L3.9,32.8z M28.8,37.5h3.1c0.4,0,0.8-0.3,0.8-0.8c0,0,0,0,0,0v-1.6H35v8.6h-9.3
	v-8.6H28v1.6C28,37.1,28.4,37.5,28.8,37.5C28.8,37.5,28.8,37.5,28.8,37.5L28.8,37.5L28.8,37.5z M29.6,35.9v-0.8h1.6v0.8H29.6
	L29.6,35.9z M12.4,39.8h3.1c0.4,0,0.8-0.3,0.8-0.8c0,0,0,0,0,0v-1.6h3.9v6.2H7.8v-6.2h3.9v1.6C11.7,39.5,12,39.8,12.4,39.8
	C12.4,39.8,12.4,39.8,12.4,39.8L12.4,39.8L12.4,39.8z M13.2,38.3v-0.8h1.6v0.8H13.2z M3.9,45.3h35v0.8h-35V45.3z M1.9,1.6
	c0.2,0,0.4,0.2,0.4,0.4v46.5H1.6L1.6,2C1.6,1.7,1.7,1.6,1.9,1.6L1.9,1.6z"/>
</svg>
