<svg xmlns="http://www.w3.org/2000/svg" width="53" height="62" viewBox="0 0 53 62">
  <metadata><?xpacket begin="﻿" id="W5M0MpCehiHzreSzNTczkc9d"?>
<x:xmpmeta xmlns:x="adobe:ns:meta/" x:xmptk="Adobe XMP Core 5.6-c142 79.160924, 2017/07/13-01:06:39        ">
   <rdf:RDF xmlns:rdf="http://www.w3.org/1999/02/22-rdf-syntax-ns#">
      <rdf:Description rdf:about=""/>
   </rdf:RDF>
</x:xmpmeta>
                                                                                                    
                                                                                                    
                                                                                                    
                                                                                                    
                                                                                                    
                                                                                                    
                                                                                                    
                                                                                                    
                                                                                                    
                                                                                                    
                                                                                                    
                                                                                                    
                                                                                                    
                                                                                                    
                                                                                                    
                                                                                                    
                                                                                                    
                                                                                                    
                                                                                                    
                                                                                                    
                           
<?xpacket end="w"?></metadata>
<defs>
    <style>
      .cls-1 {
        fill: #d5ba96;
        fill-rule: evenodd;
      }
    </style>
  </defs>
  <path class="cls-1" d="M764.736,358.148l-0.675-.509a2.032,2.032,0,0,1-.644-2.421l0.333-.781a5.683,5.683,0,0,0-.3-5.086,5.593,5.593,0,0,0-4.22-2.8l-0.837-.1a2.013,2.013,0,0,1-1.759-1.772l-0.1-.844a5.648,5.648,0,0,0-2.783-4.253,5.561,5.561,0,0,0-5.047-.3l-0.775.334a2,2,0,0,1-2.4-.649l-0.5-.679a5.621,5.621,0,0,0-9.041,0l-0.5.68a2,2,0,0,1-2.4.649l-0.775-.334a5.559,5.559,0,0,0-5.046.3,5.643,5.643,0,0,0-2.783,4.253l-0.1.843a2.012,2.012,0,0,1-1.759,1.773l-0.837.1a5.6,5.6,0,0,0-4.22,2.8,5.679,5.679,0,0,0-.3,5.086l0.332,0.78a2.032,2.032,0,0,1-.644,2.422l-0.675.509a5.716,5.716,0,0,0,0,9.11l0.675,0.509a2.031,2.031,0,0,1,.644,2.421l-0.332.781a5.681,5.681,0,0,0,.3,5.085,5.6,5.6,0,0,0,4.221,2.805l0.837,0.1a2.014,2.014,0,0,1,1.759,1.772l0.1,0.844a5.642,5.642,0,0,0,2.783,4.252,5.559,5.559,0,0,0,5.046.3l0.776-.335a2,2,0,0,1,2.4.649l0.5,0.68a5.621,5.621,0,0,0,9.042,0l0.5-.68a2,2,0,0,1,2.4-.648l0.775,0.334a5.559,5.559,0,0,0,5.046-.3,5.645,5.645,0,0,0,2.783-4.253l0.1-.844a2.014,2.014,0,0,1,1.759-1.772l0.837-.1a5.6,5.6,0,0,0,4.221-2.8,5.683,5.683,0,0,0,.3-5.086l-0.332-.78a2.032,2.032,0,0,1,.644-2.422l0.675-.509A5.715,5.715,0,0,0,764.736,358.148Zm-3.506,16.615a3.058,3.058,0,0,1-2.305,1.532l-0.837.1a4.58,4.58,0,0,0-4,4.031l-0.1.844a3.08,3.08,0,0,1-1.52,2.322,3.038,3.038,0,0,1-2.756.165l-0.774-.334a4.543,4.543,0,0,0-5.465,1.475l-0.5.68a3.068,3.068,0,0,1-4.937,0l-0.5-.68a4.58,4.58,0,0,0-3.658-1.85,4.534,4.534,0,0,0-1.806.375l-0.775.334a3.038,3.038,0,0,1-2.756-.165,3.08,3.08,0,0,1-1.52-2.322l-0.1-.844a4.579,4.579,0,0,0-4-4.03l-0.837-.1a3.059,3.059,0,0,1-2.3-1.531,3.106,3.106,0,0,1-.164-2.778l0.332-.78a4.619,4.619,0,0,0-1.464-5.507l-0.675-.508a3.123,3.123,0,0,1,0-4.976l0.675-.509a4.62,4.62,0,0,0,1.464-5.506l-0.332-.781a3.1,3.1,0,0,1,.164-2.777,3.053,3.053,0,0,1,2.305-1.531l0.836-.1a4.579,4.579,0,0,0,4-4.031l0.1-.843a3.083,3.083,0,0,1,1.52-2.322,3.032,3.032,0,0,1,2.756-.165l0.775,0.334a4.54,4.54,0,0,0,5.464-1.476l0.5-.679a3.068,3.068,0,0,1,4.937,0l0.506,0.68a4.541,4.541,0,0,0,5.464,1.475l0.774-.334a3.032,3.032,0,0,1,2.756.165,3.08,3.08,0,0,1,1.52,2.322l0.1,0.843a4.58,4.58,0,0,0,4,4.031l0.837,0.1a3.057,3.057,0,0,1,2.305,1.531,3.1,3.1,0,0,1,.164,2.777l-0.332.781a4.62,4.62,0,0,0,1.464,5.506l0.675,0.509a3.122,3.122,0,0,1,0,4.976l-0.675.508a4.619,4.619,0,0,0-1.464,5.507l0.332,0.78A3.1,3.1,0,0,1,761.23,374.763Zm-20.73-31.43a18.914,18.914,0,0,0-8.364,1.926,1.229,1.229,0,0,0-.564,1.635,1.213,1.213,0,0,0,.694.623,1.2,1.2,0,0,0,.928-0.055,16.533,16.533,0,0,1,7.306-1.68,16.866,16.866,0,1,1-13.226,6.493,1.232,1.232,0,0,0-.207-1.719,1.209,1.209,0,0,0-1.705.209A19.193,19.193,0,1,0,740.5,343.333Zm-8.633,10.383a1.206,1.206,0,0,0,.8-0.3,11.859,11.859,0,0,1,7.835-2.959,11.736,11.736,0,0,1,7.356,2.56,1.209,1.209,0,0,0,1.706-.206,1.23,1.23,0,0,0-.2-1.718,14.265,14.265,0,0,0-18.29.479A1.224,1.224,0,0,0,731.867,353.716Zm-0.335,20.12A14.27,14.27,0,0,0,746.8,375.4a1.231,1.231,0,0,0,.543-1.643,1.213,1.213,0,0,0-1.63-.547,11.853,11.853,0,0,1-12.681-1.3,1.208,1.208,0,0,0-1.705.206A1.231,1.231,0,0,0,731.532,373.836Zm17.346-2.519a1.227,1.227,0,0,0-.336,2.28,1.215,1.215,0,0,0,1.376-.161,1.242,1.242,0,0,0,.207-1.6A1.22,1.22,0,0,0,748.878,371.317ZM729.26,349.79h0.057a1.225,1.225,0,0,0,1.1-.848A1.24,1.24,0,0,0,730,347.6a1.214,1.214,0,0,0-1.412-.047A1.225,1.225,0,0,0,729.26,349.79Zm5.586,19.932a1.409,1.409,0,0,0,1.4-1.412V357.3a1.408,1.408,0,0,0-1.4-1.412,1.383,1.383,0,0,0-.718.2l-2.526,1.448a1.4,1.4,0,0,0-.516,1.893,1.375,1.375,0,0,0,1.879.52l0.479-.275v8.634A1.409,1.409,0,0,0,734.846,369.722Zm9.347-13.953c-3.473,0-5.994,2.96-5.994,7.037s2.521,7.037,5.994,7.037,6-2.96,6-7.037S747.667,355.769,744.193,355.769Zm3.159,7.037c0,2.6-1.3,4.417-3.159,4.417s-3.16-1.816-3.16-4.417,1.3-4.417,3.16-4.417S747.352,360.205,747.352,362.806Zm-2.562,21.363v10.28l-3.807-3.112a1.11,1.11,0,0,0-1.41,0l-3.807,3.112v-10.28h-2.257v12.678a1.173,1.173,0,0,0,.248.721,1.112,1.112,0,0,0,1.586.179l4.935-4.034,4.935,4.034a1.112,1.112,0,0,0,.705.253,1.141,1.141,0,0,0,1.128-1.153V384.169H744.79Z" transform="translate(-714 -336)"/>
</svg>
