<svg xmlns="http://www.w3.org/2000/svg" width="56.999" height="50" viewBox="0 0 56.999 50">
  <metadata><?xpacket begin="﻿" id="W5M0MpCehiHzreSzNTczkc9d"?>
<x:xmpmeta xmlns:x="adobe:ns:meta/" x:xmptk="Adobe XMP Core 5.6-c142 79.160924, 2017/07/13-01:06:39        ">
   <rdf:RDF xmlns:rdf="http://www.w3.org/1999/02/22-rdf-syntax-ns#">
      <rdf:Description rdf:about=""/>
   </rdf:RDF>
</x:xmpmeta>
                                                                                                    
                                                                                                    
                                                                                                    
                                                                                                    
                                                                                                    
                                                                                                    
                                                                                                    
                                                                                                    
                                                                                                    
                                                                                                    
                                                                                                    
                                                                                                    
                                                                                                    
                                                                                                    
                                                                                                    
                                                                                                    
                                                                                                    
                                                                                                    
                                                                                                    
                                                                                                    
                           
<?xpacket end="w"?></metadata>
<defs>
    <style>
      .cls-1 {
        fill: #d5ba96;
        fill-rule: evenodd;
      }
    </style>
  </defs>
  <path class="cls-1" d="M982.328,342.323a11.522,11.522,0,0,1,3.851-.271c3.188,0.23,6.375.42,9.563,0.65a10.563,10.563,0,0,1,6.808,3.22q9.885,9.969,19.78,19.927a5.942,5.942,0,0,1,.11,8.163c-5.33,5.444-10.71,10.854-16.07,16.268a5.838,5.838,0,0,1-8.234.034q-9.969-10.06-19.927-20.138a10.3,10.3,0,0,1-3-6.751,1.341,1.341,0,0,1,1.912-1.273c0.8,0.315.733,1.3,0.89,2a7.584,7.584,0,0,0,2.237,4.262q9.815,9.893,19.626,19.792a3.184,3.184,0,0,0,4.569.109c5.09-5.116,10.15-10.276,15.25-15.4a4.5,4.5,0,0,0,1.57-2.329,3.253,3.253,0,0,0-1.03-2.966q-9.795-9.9-19.59-19.809a7.784,7.784,0,0,0-5.126-2.394c-3.445-.23-6.891-0.474-10.336-0.684a7.528,7.528,0,0,0-7.287,4.523,12.36,12.36,0,0,0-.777,4.344,1.352,1.352,0,0,1-2.568-.284A10.46,10.46,0,0,1,982.328,342.323Zm3.707,6.8a5.849,5.849,0,0,1,6.6,3.44,5.982,5.982,0,0,1-2.5,7.448,1.353,1.353,0,0,1-1.714-1.821c0.656-.83,1.724-1.392,1.9-2.543a3.167,3.167,0,0,0-3.47-3.914c-1.111.058-1.751,1.067-2.645,1.564a1.36,1.36,0,0,1-1.564-1.933A5.732,5.732,0,0,1,986.035,349.118Zm-18.471,4.564a1.269,1.269,0,0,1,1.684.108,13.483,13.483,0,0,0,3.922,2.573,12.433,12.433,0,0,0,12.188-1.568,1.362,1.362,0,0,1,2.187,1.49,7.518,7.518,0,0,1-2.716,2.042,15.006,15.006,0,0,1-17.429-2.614A1.377,1.377,0,0,1,967.564,353.682Zm35.4,25.736a2.1,2.1,0,0,1-1.69-.838c-0.52-.632-0.96-1.295-1.391-1.937-0.36-.538-0.7-1.048-1.073-1.522l-0.111,0-0.141,0c-0.512-.014-1.037,0-1.593.021a21.82,21.82,0,0,1-2.449-.016,2.03,2.03,0,0,1-1.492-.7,2.4,2.4,0,0,1-.561-1.93l0.038-.246,0.121-.216a18.9,18.9,0,0,1,1.561-2.261c0.391-.512.765-1,1.087-1.5a10.012,10.012,0,0,0-.616-2,15.464,15.464,0,0,1-.646-1.953,2.163,2.163,0,0,1,.406-2.191,2.068,2.068,0,0,1,2.164-.682,17.674,17.674,0,0,1,2.3.738,17.264,17.264,0,0,0,1.8.6c0.54-.343,1.06-0.75,1.61-1.177s1.15-.9,1.78-1.308a2.177,2.177,0,0,1,3.41,1.429l0.01,0.076a21.447,21.447,0,0,1,.03,2.652c-0.02.642-.04,1.256-0.01,1.853a12.794,12.794,0,0,0,1.6,1.191,14.214,14.214,0,0,1,2.08,1.581l0.09,0.087,0.07,0.1a2.247,2.247,0,0,1,.29,1.926,2.08,2.08,0,0,1-1.17,1.335,13.72,13.72,0,0,1-2.31.779,11.712,11.712,0,0,0-1.87.623c-0.22.576-.39,1.193-0.57,1.839a19.45,19.45,0,0,1-.79,2.389,2.1,2.1,0,0,1-1.75,1.253Q1003.065,379.418,1002.96,379.418Zm-2.13-6.069c0.47,0.583.87,1.189,1.27,1.776,0.23,0.354.46,0.7,0.7,1.027,0.12-.361.22-0.737,0.33-1.123a17.566,17.566,0,0,1,.89-2.633l0.17-.382,0.36-.217a10.841,10.841,0,0,1,2.91-1.107c0.37-.1.73-0.2,1.08-0.312-0.29-.209-0.6-0.412-0.91-0.62a11.8,11.8,0,0,1-2.43-1.958l-0.3-.334-0.04-.446a21.5,21.5,0,0,1-.03-2.655c0.02-.461.03-0.906,0.03-1.341-0.31.226-.62,0.468-0.94,0.719a18.379,18.379,0,0,1-2.36,1.653l-0.41.23-0.47-.08a15.345,15.345,0,0,1-2.74-.828c-0.393-.147-0.774-0.29-1.15-0.412,0.106,0.319.23,0.646,0.359,0.983a10.015,10.015,0,0,1,.829,3.252l0.015,0.392-0.2.34a19.782,19.782,0,0,1-1.5,2.155c-0.267.348-.526,0.686-0.765,1.025,0.435,0.005.882-.01,1.345-0.025,0.569-.018,1.158-0.037,1.758-0.02l0.116,0A2.39,2.39,0,0,1,1000.83,373.349Z" transform="translate(-967.031 -342)"/>
</svg>
