<svg xmlns="http://www.w3.org/2000/svg" width="50" height="50" viewBox="0 0 50 50">
  <metadata><?xpacket begin="﻿" id="W5M0MpCehiHzreSzNTczkc9d"?>
<x:xmpmeta xmlns:x="adobe:ns:meta/" x:xmptk="Adobe XMP Core 5.6-c142 79.160924, 2017/07/13-01:06:39        ">
   <rdf:RDF xmlns:rdf="http://www.w3.org/1999/02/22-rdf-syntax-ns#">
      <rdf:Description rdf:about=""/>
   </rdf:RDF>
</x:xmpmeta>
                                                                                                    
                                                                                                    
                                                                                                    
                                                                                                    
                                                                                                    
                                                                                                    
                                                                                                    
                                                                                                    
                                                                                                    
                                                                                                    
                                                                                                    
                                                                                                    
                                                                                                    
                                                                                                    
                                                                                                    
                                                                                                    
                                                                                                    
                                                                                                    
                                                                                                    
                                                                                                    
                           
<?xpacket end="w"?></metadata>
<defs>
    <style>
      .cls-1 {
        fill: #d5ba96;
        fill-rule: evenodd;
      }
    </style>
  </defs>
  <path class="cls-1" d="M234.768,358.486a1.255,1.255,0,1,0-1.255-1.255A1.256,1.256,0,0,0,234.768,358.486ZM217.23,373.515a1.255,1.255,0,1,0,1.254,1.255A1.256,1.256,0,0,0,217.23,373.515Zm31.949,7.067-13.079-12,0.322-.321a1.255,1.255,0,0,0-1.775-1.775l-0.4.4-0.991-.91,5.386-5.385a9.949,9.949,0,0,0,11.837-12.822,1.255,1.255,0,0,0-2.08-.484l-3.917,3.948h-1.675l-1.945-2.015v-1.71l3.861-3.919a1.254,1.254,0,0,0-.493-2.069,9.95,9.95,0,0,0-12.823,11.837l-6.788,6.788-11.556-11.583v-2.21a1.26,1.26,0,0,0-.61-1.076l-6.825-4.1a1.253,1.253,0,0,0-1.533.189l-2.73,2.729a1.255,1.255,0,0,0-.188,1.534l4.094,6.825a1.261,1.261,0,0,0,1.076.609h2.209l11.558,11.583-6.761,6.762a9.95,9.95,0,0,0-11.838,12.823,1.262,1.262,0,0,0,.905.821,1.245,1.245,0,0,0,1.175-.338l3.917-3.947H209.2l2.029,2.028v1.688l-3.948,3.917a1.247,1.247,0,0,0-.338,1.175,1.262,1.262,0,0,0,.821.905,9.951,9.951,0,0,0,12.823-11.838l5.358-5.358,0.911,0.989-0.4.4a1.255,1.255,0,0,0,1.775,1.775l0.328-.328,12.023,13.059c0.011,0.013.024,0.025,0.036,0.037a6.081,6.081,0,1,0,8.6-8.6Zm-31.193-1.9a7.439,7.439,0,0,1-7.045,9.807c-0.06,0-.121,0-0.182,0l2.61-2.59a1.261,1.261,0,0,0,.371-0.89v-2.731a1.246,1.246,0,0,0-.367-0.887l-2.764-2.764a1.247,1.247,0,0,0-.887-0.368h-2.731a1.269,1.269,0,0,0-.891.371l-2.59,2.611c0-.061,0-0.122,0-0.182a7.44,7.44,0,0,1,9.807-7.046,1.248,1.248,0,0,0,1.288-.3l19.064-19.065,0.043-.042a1.247,1.247,0,0,0,.3-1.288,7.439,7.439,0,0,1,7.265-9.8l-2.561,2.6a1.246,1.246,0,0,0-.361.881v2.73a1.249,1.249,0,0,0,.352.872l2.667,2.763a1.26,1.26,0,0,0,.9.384h2.731a1.263,1.263,0,0,0,.89-0.371l2.59-2.61c0,0.06,0,.121,0,0.182a7.439,7.439,0,0,1-9.807,7.045,1.247,1.247,0,0,0-1.287.3l-5.3,5.295L218.288,377.4A1.25,1.25,0,0,0,217.986,378.684Zm-7.065-28.717,11.926,11.952-0.956.956-11.924-11.95a1.239,1.239,0,0,0-.887-0.359h-2.02l-3.225-5.385,1.344-1.345,5.376,3.226v2.02A1.248,1.248,0,0,0,210.921,349.967Zm21.552,18.694-3.839,3.839-0.911-.989,3.759-3.76Zm14.971,18.785a3.581,3.581,0,0,1-5.035.017l-12.074-13.115,3.989-3.988,13.137,12.052A3.581,3.581,0,0,1,247.444,387.446Zm-14.15-27.485a1.256,1.256,0,0,0-2.143-.887l-12.079,12.079a1.255,1.255,0,0,0,1.775,1.775l12.079-12.08A1.245,1.245,0,0,0,233.294,359.961Zm3.127,14.715a1.248,1.248,0,0,0-.886-0.366h0a1.254,1.254,0,0,0-.884,2.143l8.7,8.673h0a1.255,1.255,0,0,0,2.141-.891,1.24,1.24,0,0,0-.369-0.886Z" transform="translate(-201 -341)"/>
</svg>
