<?xml version="1.0" encoding="utf-8"?>
<!-- Generator: Adobe Illustrator 19.2.1, SVG Export Plug-In . SVG Version: 6.00 Build 0)  -->
<svg version="1.1" id="Слой_1" xmlns="http://www.w3.org/2000/svg" xmlns:xlink="http://www.w3.org/1999/xlink" x="0px" y="0px"
	 viewBox="0 0 50 50" style="enable-background:new 0 0 50 50;" xml:space="preserve">
<style type="text/css">
	.st0{fill:#222222;}
</style>
<path class="st0" d="M46.5,22.6h-1.2v-8.3c0-1.9-1.5-3.4-3.3-3.5c0,0,0,0,0,0h-0.9V5.3c0.1-1.8-1.3-3.4-3.1-3.5h-0.2l-34.6,9
	c0,0,0,0,0,0C1.3,11,0,12.5,0,14.3v32.2C0,48.4,1.5,50,3.3,50c0,0,0,0,0,0H42c1.9,0,3.4-1.5,3.4-3.4c0,0,0,0,0-0.1V38h1.1
	c0.5,0,1-0.4,1-0.9c0,0,0-0.1,0-0.1V23.7C47.5,23.1,47.1,22.6,46.5,22.6z M38.1,3.8c0.6,0.2,1.1,0.9,1,1.5v5.5H11.2L38.1,3.8
	L38.1,3.8L38.1,3.8z M43.4,46.5c0,0.8-0.6,1.5-1.4,1.5H3.3c-0.8,0-1.4-0.7-1.4-1.5V14.3c0-0.8,0.6-1.5,1.4-1.5h38.5
	c0.8,0,1.4,0.7,1.4,1.5v8.3h-10c-4.2,0-7.7,3.5-7.6,7.8c0,4.2,3.4,7.6,7.6,7.6h10.1V46.5L43.4,46.5L43.4,46.5z M45.5,36.1H33.3
	c-3.1,0-5.6-2.6-5.6-5.7c0-3.1,2.5-5.5,5.6-5.6h12.2L45.5,36.1L45.5,36.1z M32.2,30.5c0,0.6,0.4,1,1,1c0,0,0,0,0,0h0.9
	c0.6,0,1-0.5,1-1c0-0.6-0.5-1-1-1h-0.9c-0.5,0-1,0.4-1,0.9C32.2,30.4,32.2,30.5,32.2,30.5z"/>
</svg>
