<?xml version="1.0" encoding="utf-8"?>
<!-- Generator: Adobe Illustrator 19.2.1, SVG Export Plug-In . SVG Version: 6.00 Build 0)  -->
<svg version="1.1" id="Слой_1" xmlns="http://www.w3.org/2000/svg" xmlns:xlink="http://www.w3.org/1999/xlink" x="0px" y="0px"
	 viewBox="0 0 50 50" style="enable-background:new 0 0 50 50;" xml:space="preserve">
<style type="text/css">
	.st0{fill:#D2B896;}
</style>
<path class="st0" d="M49.5,41.1l-11.8-5.5c0,0,0,0-0.1-0.1c0,0,0,0-0.1-0.1c0,0,0,0,0,0c0,0-0.1,0-0.1,0c0,0,0,0,0,0l-5.9-2.5
	l-9.3-4l2.6-0.9l6.3,2.6l0,0l17.2,7.1c0.1,0,0.2,0.1,0.3,0.1c0.5,0,0.8-0.4,0.8-0.8c0,0,0,0,0,0V10.7c0-0.3-0.2-0.6-0.5-0.8
	l-6.5-2.7l0,0L25.1,0.1C25.1,0,25,0,24.9,0l0,0c-0.1,0-0.2,0-0.4,0c0,0,0,0,0,0L0,8.3l0.5,1.6L24,2v24.5l-3.3,1.1v-7.1
	c0-0.5-0.4-0.8-0.8-0.8c-0.1,0-0.2,0-0.2,0L0.8,25.5c-0.3,0.1-0.6,0.4-0.6,0.8v13.1c0,0.3,0.2,0.6,0.5,0.7l8.7,4.2L5.6,46
	c-0.4,0.2-0.6,0.7-0.4,1.1c0.1,0.2,0.2,0.3,0.4,0.4l4.9,2.3l0.7-1.5l-3.3-1.6l3.4-1.6l8.2,3.9c0,0,0,0,0.1,0c0,0,0.1,0,0.1,0
	c0,0,0.1,0,0.1,0c0,0,0,0,0.1,0h0c0,0,0.1,0,0.1,0c0,0,0,0,0.1,0s0,0,0.1,0c0,0,0,0,0,0l17.2-7.4c0.3-0.1,0.5-0.4,0.5-0.8v-3.6
	l9.3,4.4l-14.6,6.6l0.7,1.5l16.2-7.4c0.4-0.2,0.6-0.7,0.4-1.1C49.8,41.3,49.7,41.2,49.5,41.1z M42.8,29.6V9.2l4.9,2v24.5l-4.9-2
	V29.6L42.8,29.6z M41.2,33l-7.6-3.2l4.3-1.1l3.3,1.3V33z M35.4,27.7v-6.5l1.6-0.4v6.5L35.4,27.7z M41.2,28.3l-2.5-1v-6.4l1.2,0.5
	l1.2,0.5V28.3L41.2,28.3z M41.2,20.1l-1.2-0.5l-1.2-0.5v-1.5l2.5,1V20.1z M32.2,4.8l9,3.7v8.3l-2.5-1v-2.7h-1.6v2.6L32.2,17
	L32.2,4.8L32.2,4.8z M32.2,18.7l4.9-1.2v1.6l-4.9,1.2V18.7z M32.2,22l1.6-0.4v6.5l-1.6,0.4V22z M25.6,2l4.9,2v24.5l-4.9-2V2L25.6,2z
	 M19.8,29.6l9.3,4L14.5,40L3.3,34.6l1.3-0.4l4.9-1.5l2.1-0.6l1.2-0.4l0,0l4.9-1.5L19.8,29.6z M5.2,32.4v-2.2L8.4,29v2.3L5.2,32.4z
	 M13.3,29.9v-2.2l3.3-1.1v2.3l-1.4,0.4L13.3,29.9z M1.9,26.9l17.2-5.2v6.5l-0.8,0.3v-2.9c0-0.5-0.4-0.8-0.8-0.8c-0.1,0-0.2,0-0.3,0
	l-4.9,1.6c-0.3,0.1-0.6,0.4-0.6,0.8v3.3l-1.6,0.5v-3c0-0.5-0.4-0.8-0.8-0.8c-0.1,0-0.2,0-0.3,0l-4.9,1.6c-0.3,0.1-0.6,0.4-0.6,0.8
	v3.3l-1.6,0.5L1.9,26.9L1.9,26.9z M19.1,47.1l-7.4-3.5l0,0l-9.8-4.7v-3.1L19.1,44V47.1L19.1,47.1L19.1,47.1z M19.9,42.6L16.5,41
	l14.7-6.5l3.8,1.6L19.9,42.6z M36.3,40.5l-15.5,6.7v-3.1l15.5-6.7V40.5L36.3,40.5z M17.9,6.7c-0.2-0.2-0.5-0.2-0.7-0.1L2.5,11.5
	c-0.3,0.1-0.6,0.4-0.6,0.8v9.9c0,0.5,0.4,0.8,0.8,0.8c0.1,0,0.2,0,0.3,0L17.7,18c0.3-0.1,0.6-0.4,0.6-0.8V7.4
	C18.3,7.1,18.1,6.9,17.9,6.7z M16.6,16.7L3.5,21v-8.1l13.1-4.4V16.7L16.6,16.7z M13.6,11.7l-2.9,2.9l-2-0.7c-0.2-0.1-0.5,0-0.7,0.1
	l-2.5,1.6l0.9,1.4l2.1-1.4l2.1,0.7c0.3,0.1,0.6,0,0.8-0.2l3.3-3.3L13.6,11.7z"/>
</svg>
