<?xml version="1.0" encoding="utf-8"?>
<!-- Generator: Adobe Illustrator 19.2.1, SVG Export Plug-In . SVG Version: 6.00 Build 0)  -->
<svg version="1.1" id="Слой_1" xmlns="http://www.w3.org/2000/svg" xmlns:xlink="http://www.w3.org/1999/xlink" x="0px" y="0px"
	 viewBox="0 0 50 50" style="enable-background:new 0 0 50 50;" xml:space="preserve">
<style type="text/css">
	.st0{fill:#222222;}
</style>
<path class="st0" d="M32.2,24.5c0.4-0.4,0.4-0.9,0-1.3c-0.3-0.4-0.9-0.4-1.3,0c0,0,0,0,0,0c-0.4,0.4-0.4,0.9,0,1.3
	C31.3,24.9,31.8,24.9,32.2,24.5C32.2,24.5,32.2,24.5,32.2,24.5z M0.9,50h44.5c0.4,0,0.7-0.2,0.8-0.6c0.1-0.3,0.1-0.7-0.2-1L1.5,3.3
	C1.3,3,0.9,2.9,0.6,3.1C0.2,3.2,0,3.6,0,3.9v45.2C0,49.6,0.4,50,0.9,50C0.9,50,0.9,50,0.9,50z M1.8,6.1l7.3,7.4l-1.9,1.9
	c-0.4,0.4-0.4,0.9,0,1.3c0.3,0.4,0.9,0.4,1.3,0c0,0,0,0,0,0l1.9-1.9l3.8,3.9l-1.9,1.9c-0.4,0.4-0.4,0.9,0,1.3c0.3,0.4,0.9,0.4,1.3,0
	c0,0,0,0,0,0l1.9-1.9l3.8,3.9l-1.9,1.9c-0.4,0.4-0.4,0.9,0,1.3c0.3,0.4,0.9,0.4,1.3,0c0,0,0,0,0,0l1.9-1.9l3.8,3.9l-1.9,1.9
	c-0.4,0.4-0.4,0.9,0,1.3c0.3,0.4,0.9,0.4,1.3,0c0,0,0,0,0,0l1.9-1.9l3.8,3.9l-1.9,1.9c-0.4,0.4-0.4,0.9,0,1.3c0.3,0.4,0.9,0.4,1.3,0
	c0,0,0,0,0,0l1.9-1.9l3.8,3.9l-1.9,1.9c-0.4,0.4-0.4,0.9,0,1.3c0.3,0.4,0.9,0.4,1.3,0c0,0,0,0,0,0l1.9-1.9l7.3,7.4H1.8L1.8,6.1
	L1.8,6.1z M9.3,22.1c-0.3-0.3-0.6-0.3-1-0.2C8,22,7.8,22.4,7.8,22.7v18.4c0,0.5,0.4,0.9,0.9,0.9h18.2c0.4,0,0.7-0.2,0.8-0.6
	c0.1-0.3,0.1-0.7-0.2-1L9.3,22.1z M9.6,40.3V25l15.1,15.3H9.6z M28.4,21.9c0.3,0.4,0.9,0.4,1.3,0c0,0,0,0,0,0c0.4-0.4,0.4-0.9,0-1.3
	l-3.8-3.9c-0.3-0.4-0.9-0.4-1.3,0c0,0,0,0,0,0c-0.4,0.4-0.4,0.9,0,1.3L28.4,21.9z M13.7,12.4l25.4,25.8c1,1.1,2.7,1.1,3.8,0
	c0,0,0,0,0,0l2.6-2.6c1.1-1.1,1.1-2.8,0-3.9L20.1,5.9c-0.1-0.1-0.2-0.2-0.4-0.2l-7.7-2.6c-0.3-0.1-0.7,0-0.9,0.2
	c-0.2,0.2-0.3,0.6-0.2,0.9l2.6,7.8C13.6,12.1,13.6,12.3,13.7,12.4L13.7,12.4z M44.3,32.9c0.4,0.4,0.4,0.9,0,1.3l-2.6,2.6
	c-0.3,0.4-0.9,0.4-1.3,0c0,0,0,0,0,0l-2-2l3.8-3.9L44.3,32.9z M41,29.6l-3.8,3.9l-1.3-1.3l3.8-3.9L41,29.6z M20.1,8.4l18.4,18.6
	l-3.8,3.9L16.3,12.3L20.1,8.4z M18.7,7.2l-3.6,3.7l-1.8-5.5L18.7,7.2z"/>
</svg>
