<?xml version="1.0" encoding="utf-8"?>
<!-- Generator: Adobe Illustrator 19.2.1, SVG Export Plug-In . SVG Version: 6.00 Build 0)  -->
<svg version="1.1" id="Слой_1" xmlns="http://www.w3.org/2000/svg" xmlns:xlink="http://www.w3.org/1999/xlink" x="0px" y="0px"
	 viewBox="0 0 63 50" style="enable-background:new 0 0 63 50;" xml:space="preserve">
<style type="text/css">
	.st0{fill:#D2B896;}
</style>
<path class="st0" d="M51.5,46.9v-4.2c0-1.7-1.4-3.2-3.1-3.2c-1.1,0-2.2,0.6-2.7,1.6l1.8,1c0.3-0.5,0.9-0.7,1.4-0.4
	c0.3,0.2,0.5,0.5,0.5,0.9v4.2L51.5,46.9L51.5,46.9z M14.7,25.9c-1.7,0-3.2,1.4-3.2,3.1c0,0,0,0,0,0v3.1c0,0.6,0.5,1,1,1h4.2
	c0.6,0,1-0.5,1-1V29C17.8,27.3,16.4,25.9,14.7,25.9z M15.8,31.1h-2.1V29c0-0.6,0.5-1.1,1-1.1c0.6,0,1.1,0.5,1.1,1c0,0,0,0,0,0V31.1z
	 M23.1,25.9c-1.7,0-3.2,1.4-3.2,3.1c0,0,0,0,0,0v3.1c0,0.6,0.5,1.1,1,1.1h0h4.2c0.6,0,1-0.5,1-1V29C26.3,27.3,24.8,25.9,23.1,25.9
	L23.1,25.9z M24.1,31.1H22V29c0-0.6,0.5-1.1,1-1.1c0.6,0,1.1,0.5,1.1,1c0,0,0,0,0,0V31.1z M14.7,12.2c-1.7,0-3.2,1.4-3.2,3.1
	c0,0,0,0,0,0v3.1c0,0.6,0.5,1,1,1h4.2c0.6,0,1-0.5,1-1v-3.1C17.8,13.6,16.4,12.2,14.7,12.2L14.7,12.2z M15.7,17.5h-2.1v-2.1
	c0-0.6,0.5-1.1,1-1.1c0.6,0,1.1,0.5,1.1,1c0,0,0,0,0,0V17.5z M42,33.2c0.6,0,1-0.5,1-1V29c0-1.7-1.4-3.2-3.2-3.2
	c-0.6,0-1.1,0.1-1.6,0.4l1,1.8c0.5-0.3,1.1-0.1,1.4,0.4c0.1,0.2,0.1,0.3,0.1,0.5v4.2L42,33.2L42,33.2z M50.4,33.2c0.6,0,1-0.5,1-1
	c0,0,0,0,0,0V29c0-1.7-1.4-3.1-3.2-3.1c-1.7,0-3.1,1.4-3.1,3.1v3.2c0,0.6,0.5,1,1,1H50.4L50.4,33.2z M47.3,29c0-0.6,0.5-1,1.1-1
	c0.6,0,1,0.5,1,1v2.1h-2.1V29z M35.7,23.7h22V26c-0.3-0.1-0.7-0.2-1-0.2c-1.7,0-3.2,1.4-3.2,3.1c0,0,0,0,0,0v3.1c0,0.6,0.5,1,1,1
	h3.2v2.1H44.1v2.1h13.7v2.3c-0.3-0.1-0.7-0.2-1-0.2c-1.7,0-3.1,1.4-3.2,3.1v5.3h-2.1V50H63v-2.1h-3.1V37.4H63v-2.1h-3.1V23.7H63
	v-2.1H35.7V23.7z M57.8,47.9h-2.1v-5.3c0-0.6,0.5-1,1.1-1c0.6,0,1,0.5,1,1V47.9z M55.7,31.1V29c0-0.6,0.5-1.1,1-1.1
	c0.6,0,1.1,0.5,1.1,1c0,0,0,0,0,0v2.1H55.7z M8.4,50h38.8c0.6,0,1.1-0.5,1.1-1c0-0.2-0.1-0.4-0.2-0.5L24,8.5C23.8,8.2,23.5,8,23.1,8
	H0v2.1h3.2v11.5H0v2.1h3.2v11.5H0v2.1h3.2v10.5H0V50H8.4z M5.3,47.9v-5.3c0-0.6,0.5-1.1,1-1.1c0.6,0,1.1,0.5,1.1,1c0,0,0,0,0,0v5.3
	H5.3z M13.7,47.9v-5.3c0-0.6,0.5-1,1.1-1c0.6,0,1,0.5,1,1v5.3H13.7z M22.1,47.9v-5.3c0-0.6,0.5-1,1.1-1c0.6,0,1,0.5,1,1v5.3H22.1z
	 M30.5,47.9v-5.3c0-0.6,0.5-1,1.1-1c0.6,0,1,0.5,1,1v5.3H30.5z M38.9,47.9v-5.3c0-0.6,0.5-1.1,1-1.1c0.6,0,1.1,0.5,1.1,1
	c0,0,0,0,0,0v5.3H38.9z M43.1,47.9V44l2.3,3.9H43.1L43.1,47.9z M32.5,29v2.1h-2.1V29c0-0.6,0.5-1.1,1-1.1
	C32.1,27.9,32.5,28.4,32.5,29C32.5,29,32.5,29,32.5,29z M24.1,15.4v2.1H22v-2.1c0-0.6,0.5-1.1,1-1.1C23.7,14.3,24.2,14.8,24.1,15.4
	L24.1,15.4L24.1,15.4z M5.2,15.4c0-0.6,0.5-1,1.1-1c0.6,0,1,0.5,1,1v2.1H5.2V15.4z M5.2,19.6h3.2c0.6,0,1-0.5,1-1v-3.1
	c0-1.7-1.4-3.1-3.2-3.1l0,0c-0.4,0-0.7,0.1-1,0.2v-2.3h17.3l1.3,2.2c-0.2-0.1-0.5-0.1-0.7-0.1c-1.7,0-3.2,1.4-3.2,3.1c0,0,0,0,0,0
	v3.1c0,0.6,0.5,1,1,1h4.2c0.6,0,1-0.5,1-1v-2.2l3.3,5.4H5.3L5.2,19.6L5.2,19.6z M5.2,29c0-0.6,0.5-1,1.1-1c0.6,0,1,0.5,1,1v2.1H5.2
	V29L5.2,29z M5.2,33.2h3.2c0.6,0,1-0.5,1-1V29c0-1.7-1.4-3.1-3.1-3.1c0,0,0,0,0,0c-0.4,0-0.7,0.1-1,0.2v-2.3h25.5l1.3,2.2
	c-1.7-0.3-3.3,0.8-3.7,2.5c0,0.2-0.1,0.4-0.1,0.6v3.2c0,0.6,0.5,1,1,1h4.2c0.6,0,1-0.5,1-1v-2l3.1,5.1H5.3L5.2,33.2L5.2,33.2z
	 M39,37.4l1.3,2.1c-0.1,0-0.3,0-0.4,0c-1.7,0-3.2,1.4-3.2,3.1c0,0,0,0,0,0v5.3h-2.1v-5.3c0-1.7-1.4-3.2-3.1-3.2s-3.2,1.4-3.2,3.1
	c0,0,0,0,0,0v5.3h-2.1v-5.3c0-1.7-1.4-3.2-3.1-3.2S20,40.9,20,42.6c0,0,0,0,0,0v5.3h-2.1v-5.3c0-1.7-1.4-3.2-3.1-3.2
	s-3.2,1.4-3.2,3.1c0,0,0,0,0,0v5.3H9.5v-5.3c0-1.7-1.4-3.1-3.1-3.2c-0.4,0-0.8,0.1-1.1,0.2v-2.3L39,37.4L39,37.4z"/>
</svg>
