<?xml version="1.0" encoding="utf-8"?>
<!-- Generator: Adobe Illustrator 19.2.1, SVG Export Plug-In . SVG Version: 6.00 Build 0)  -->
<svg version="1.1" id="Слой_1" xmlns="http://www.w3.org/2000/svg" xmlns:xlink="http://www.w3.org/1999/xlink" x="0px" y="0px"
	 viewBox="0 0 50 50" style="enable-background:new 0 0 50 50;" xml:space="preserve">
<style type="text/css">
	.st0{fill:#D2B896;}
</style>
<path class="st0" d="M45.7,0.6H3.1C1.4,0.6,0,2,0,3.7c0,0,0,0,0,0v35c0,1.7,1.4,3.1,3,3.1c0,0,0,0,0,0h24.4v-2.1H3.1
	c-0.6,0-1-0.5-1-1c0,0,0,0,0,0v-35c0-0.6,0.4-1,1-1c0,0,0,0,0,0h42.6c0.6,0,1,0.5,1,1c0,0,0,0,0,0v35c0,0.6-0.4,1-1,1c0,0,0,0,0,0
	h-2v2.1h2c1.7,0,3.1-1.4,3.1-3.1c0,0,0,0,0,0v-35C48.7,2,47.4,0.6,45.7,0.6C45.7,0.6,45.7,0.6,45.7,0.6z M42.6,10.9
	c-2.3,0-4.1-1.9-4.1-4.1c0-0.6-0.4-1-1-1c0,0,0,0,0,0H11.2c-0.6,0-1,0.5-1,1c0,0,0,0,0,0c0,2.3-1.8,4.1-4.1,4.1c-0.6,0-1,0.5-1,1
	c0,0,0,0,0,0v18.5c0,0.6,0.4,1,1,1c0,0,0,0,0,0c2.3,0,4.1,1.9,4.1,4.1c0,0.6,0.4,1,1,1c0,0,0,0,0,0h13.2v-2.1H12.1
	c-0.4-2.6-2.4-4.6-5-5.1V12.9c2.6-0.5,4.6-2.5,5-5.1h24.5c0.4,2.6,2.4,4.6,5,5.1v8.3h2v-9.3C43.6,11.4,43.2,10.9,42.6,10.9
	C42.6,10.9,42.6,10.9,42.6,10.9L42.6,10.9z M35.5,22.2c-5.1-0.1-9.3,4-9.4,9.1c-0.1,5.1,4,9.3,9.1,9.4c5.1,0.1,9.3-4,9.4-9.1
	c0,0,0-0.1,0-0.1C44.7,26.4,40.6,22.3,35.5,22.2L35.5,22.2z M35.5,38.7c-4,0.1-7.2-3.1-7.3-7.1c-0.1-4,3.1-7.2,7.1-7.3
	c4-0.1,7.2,3.1,7.3,7.1c0,0,0,0.1,0,0.1C42.7,35.4,39.5,38.7,35.5,38.7L35.5,38.7z M39.6,37.7v9.2l-3.4-2.8c-0.4-0.3-0.9-0.3-1.3,0
	l-3.4,2.8v-9.2h-2V49c0,0.6,0.4,1,1,1c0.2,0,0.5-0.1,0.6-0.2l4.4-3.6l4.4,3.6c0.2,0.1,0.4,0.2,0.6,0.2c0.6,0,1-0.5,1-1V37.7
	L39.6,37.7L39.6,37.7z M34.5,10.9H14.2c-0.6,0-1,0.5-1,1c0,0,0,0,0,0V16c0,0.6,0.4,1,1,1c0,0,0,0,0,0h20.3c0.6,0,1-0.5,1-1v-4.1
	C35.5,11.4,35.1,10.9,34.5,10.9L34.5,10.9z M33.5,15H15.2V13h18.3V15z M12.2,20.2h2v2.1h-2V20.2z M16.2,20.2h2v2.1h-2V20.2z
	 M12.2,24.3h12.2v2.1H12.2V24.3L12.2,24.3z M35.5,26.3c-2.8,0-5.2,2.2-5.2,5.1c0,2.8,2.2,5.2,5.1,5.2c2.8,0,5.2-2.2,5.2-5.1
	c0,0,0-0.1,0-0.1C40.6,28.7,38.4,26.4,35.5,26.3L35.5,26.3z M35.5,34.6c-1.7,0-3.1-1.3-3.1-3c0-1.7,1.3-3.1,3-3.1
	c1.7,0,3.1,1.3,3.1,3c0,0,0,0,0,0C38.6,33.2,37.2,34.6,35.5,34.6L35.5,34.6z M5.1,34.6h2v2.1h-2V34.6z M41.6,5.8h2v2.1h-2V5.8
	L41.6,5.8z M5.1,5.8h2v2.1h-2V5.8L5.1,5.8z"/>
</svg>
